<?xml version="1.0" encoding="UTF-8"?>
<!-- Generator: CustomSymbols v2.7.2.48 by @serious_bret https://bretlester.com/app_content/CustomSymbols/ -->
<!-- Guides: Left/Right -0.111/0.021 Cap/Base -0.068/-0.068 -->
<!-- Settings: RefScale 1.0 Min/Max Stroke Scales 0.5/2.21 -->
<!DOCTYPE svg
PUBLIC "-//W3C//DTD SVG 1.1//EN"
       "http://www.w3.org/Graphics/SVG/1.1/DTD/svg11.dtd">
<svg version="1.1" xmlns="http://www.w3.org/2000/svg" xmlns:xlink="http://www.w3.org/1999/xlink" width="3300" height="2200">
<![CDATA[<svg width="19" height="21" viewBox="0 0 19 21" fill="none" xmlns="http://www.w3.org/2000/svg">
<path fill-rule="evenodd" clip-rule="evenodd" d="M8.58398 20.6445C12.7148 20.6445 15.293 18.4766 15.293 15V14.8242H15.8789C17.6172 14.8242 18.7305 13.6523 18.7305 11.9043V7.99805C18.7305 6.24023 17.6172 5.07812 15.8789 5.07812H15.293V2.70508C15.293 0.957031 12.0312 0 7.64648 0C3.26172 0 0 0.957031 0 2.70508V15C0 18.4766 2.58789 20.6445 6.70898 20.6445H8.58398ZM15.8789 13.3496H15.293V6.55273H15.8789C16.8652 6.55273 17.2559 6.95312 17.2559 7.99805V11.9043C17.2559 12.9395 16.8652 13.3496 15.8789 13.3496ZM7.64648 3.24219C4.22852 3.24219 1.86523 2.87109 1.86523 2.31445C1.86523 1.75781 4.22852 1.37695 7.64648 1.37695C11.0645 1.37695 13.4277 1.75781 13.4277 2.31445C13.4277 2.73139 12.1019 3.04423 10 3.175V7H12C12.5523 7 13 7.44772 13 8V15C13 15.5523 12.5523 16 12 16H7C6.44772 16 6 15.5523 6 15V8C6 7.44772 6.44772 7 7 7H9V3.22141C8.57129 3.2351 8.11896 3.24219 7.64648 3.24219Z" fill="white" fill-opacity="0.85"/>
</svg>
]]>
 <g id="Notes">
  <rect height="2200" id="artboard" style="fill:white;opacity:1" width="3300" x="0" y="0"/>
  <line id="" style="fill:none;stroke:black;opacity:1;stroke-width:0.5;" x1="263" x2="3036" y1="292" y2="292"/>
  <text id="reftext1" style="stroke:none;fill:black;font-family:-apple-system,&quot;SF Pro Display&quot;,&quot;SF Pro Text&quot;,Helvetica,sans-serif;font-weight:bold;" transform="matrix(1 0 0 1 263 322)">Weight/Scale Variations</text>
  <text id="reftext2" style="stroke:none;fill:black;font-family:-apple-system,&quot;SF Pro Display&quot;,&quot;SF Pro Text&quot;,Helvetica,sans-serif;text-anchor:middle;" transform="matrix(1 0 0 1 559.711 322)">Ultralight</text>
  <text style="stroke:none;fill:black;font-family:-apple-system,&quot;SF Pro Display&quot;,&quot;SF Pro Text&quot;,Helvetica,sans-serif;text-anchor:middle;" transform="matrix(1 0 0 1 856.422 322)">Thin</text>
  <text style="stroke:none;fill:black;font-family:-apple-system,&quot;SF Pro Display&quot;,&quot;SF Pro Text&quot;,Helvetica,sans-serif;text-anchor:middle;" transform="matrix(1 0 0 1 1153.13 322)">Light</text>
  <text style="stroke:none;fill:black;font-family:-apple-system,&quot;SF Pro Display&quot;,&quot;SF Pro Text&quot;,Helvetica,sans-serif;text-anchor:middle;" transform="matrix(1 0 0 1 1449.84 322)">Regular</text>
  <text style="stroke:none;fill:black;font-family:-apple-system,&quot;SF Pro Display&quot;,&quot;SF Pro Text&quot;,Helvetica,sans-serif;text-anchor:middle;" transform="matrix(1 0 0 1 1746.56 322)">Medium</text>
  <text style="stroke:none;fill:black;font-family:-apple-system,&quot;SF Pro Display&quot;,&quot;SF Pro Text&quot;,Helvetica,sans-serif;text-anchor:middle;" transform="matrix(1 0 0 1 2043.27 322)">Semibold</text>
  <text style="stroke:none;fill:black;font-family:-apple-system,&quot;SF Pro Display&quot;,&quot;SF Pro Text&quot;,Helvetica,sans-serif;text-anchor:middle;" transform="matrix(1 0 0 1 2339.98 322)">Bold</text>
  <text style="stroke:none;fill:black;font-family:-apple-system,&quot;SF Pro Display&quot;,&quot;SF Pro Text&quot;,Helvetica,sans-serif;text-anchor:middle;" transform="matrix(1 0 0 1 2636.69 322)">Heavy</text>
  <text style="stroke:none;fill:black;font-family:-apple-system,&quot;SF Pro Display&quot;,&quot;SF Pro Text&quot;,Helvetica,sans-serif;text-anchor:middle;" transform="matrix(1 0 0 1 2933.4 322)">Black</text>
  <line id="" style="fill:none;stroke:black;opacity:1;stroke-width:0.5;" x1="263" x2="3036" y1="1903" y2="1903"/>
  <g id="" transform="matrix(1 0 0 1 263 1933)">
   <path d="M9.24805 0.830078C13.5547 0.830078 17.1387-2.74414 17.1387-7.05078C17.1387-11.3574 13.5449-14.9316 9.23828-14.9316C4.94141-14.9316 1.36719-11.3574 1.36719-7.05078C1.36719-2.74414 4.95117 0.830078 9.24805 0.830078ZM9.24805-0.654297C5.70312-0.654297 2.87109-3.49609 2.87109-7.05078C2.87109-10.6055 5.69336-13.4473 9.23828-13.4473C12.793-13.4473 15.6348-10.6055 15.6445-7.05078C15.6543-3.49609 12.8027-0.654297 9.24805-0.654297ZM6.39648-6.31836L8.50586-6.31836L8.50586-4.19922C8.50586-3.75977 8.79883-3.45703 9.22852-3.45703C9.67773-3.45703 9.9707-3.75977 9.9707-4.19922L9.9707-6.31836L12.0996-6.31836C12.5391-6.31836 12.8418-6.61133 12.8418-7.04102C12.8418-7.48047 12.5391-7.7832 12.0996-7.7832L9.9707-7.7832L9.9707-9.89258C9.9707-10.3418 9.67773-10.6445 9.22852-10.6445C8.79883-10.6445 8.50586-10.3418 8.50586-9.89258L8.50586-7.7832L6.39648-7.7832C5.94727-7.7832 5.64453-7.48047 5.64453-7.04102C5.64453-6.61133 5.94727-6.31836 6.39648-6.31836Z"/>
  </g>
  <g id="" transform="matrix(1 0 0 1 281.506 1933)">
   <path d="M11.709 2.91016C17.1582 2.91016 21.6699-1.61133 21.6699-7.05078C21.6699-12.5 17.1484-17.0117 11.6992-17.0117C6.25977-17.0117 1.74805-12.5 1.74805-7.05078C1.74805-1.61133 6.26953 2.91016 11.709 2.91016ZM11.709 1.25C7.09961 1.25 3.41797-2.44141 3.41797-7.05078C3.41797-11.6602 7.08984-15.3516 11.6992-15.3516C16.3086-15.3516 20-11.6602 20.0098-7.05078C20.0195-2.44141 16.3184 1.25 11.709 1.25ZM7.98828-6.23047L10.8789-6.23047L10.8789-3.32031C10.8789-2.83203 11.2109-2.5 11.6895-2.5C12.1777-2.5 12.5195-2.83203 12.5195-3.32031L12.5195-6.23047L15.4297-6.23047C15.918-6.23047 16.25-6.5625 16.25-7.04102C16.25-7.5293 15.918-7.87109 15.4297-7.87109L12.5195-7.87109L12.5195-10.7617C12.5195-11.2695 12.1777-11.6016 11.6895-11.6016C11.2109-11.6016 10.8789-11.2598 10.8789-10.7617L10.8789-7.87109L7.98828-7.87109C7.48047-7.87109 7.14844-7.5293 7.14844-7.04102C7.14844-6.5625 7.49023-6.23047 7.98828-6.23047Z"/>
  </g>
  <g id="" transform="matrix(1 0 0 1 304.924 1933)">
   <path d="M14.9707 5.66406C21.9336 5.66406 27.6953-0.0976562 27.6953-7.05078C27.6953-14.0137 21.9238-19.7754 14.9609-19.7754C8.00781-19.7754 2.25586-14.0137 2.25586-7.05078C2.25586-0.0976562 8.01758 5.66406 14.9707 5.66406ZM14.9707 3.84766C8.93555 3.84766 4.08203-1.01562 4.08203-7.05078C4.08203-13.0957 8.92578-17.9492 14.9609-17.9492C21.0059-17.9492 25.8594-13.0957 25.8691-7.05078C25.8789-1.01562 21.0156 3.84766 14.9707 3.84766ZM10.0586-6.14258L14.0625-6.14258L14.0625-2.12891C14.0625-1.5918 14.4336-1.2207 14.9512-1.2207C15.4883-1.2207 15.8594-1.5918 15.8594-2.12891L15.8594-6.14258L19.8828-6.14258C20.4102-6.14258 20.791-6.51367 20.791-7.03125C20.791-7.56836 20.4199-7.94922 19.8828-7.94922L15.8594-7.94922L15.8594-11.9531C15.8594-12.5098 15.4883-12.8809 14.9512-12.8809C14.4336-12.8809 14.0625-12.5 14.0625-11.9531L14.0625-7.94922L10.0586-7.94922C9.50195-7.94922 9.13086-7.56836 9.13086-7.03125C9.13086-6.51367 9.51172-6.14258 10.0586-6.14258Z"/>
  </g>
  <text style="stroke:none;fill:black;font-family:-apple-system,&quot;SF Pro Display&quot;,&quot;SF Pro Text&quot;,Helvetica,sans-serif;font-weight:bold;" transform="matrix(1 0 0 1 263 1953)">Design Variations</text>
  <text style="stroke:none;fill:black;font-family:-apple-system,&quot;SF Pro Display&quot;,&quot;SF Pro Text&quot;,Helvetica,sans-serif;" transform="matrix(1 0 0 1 263 1971)">Symbols are supported in up to nine weights and three scales.</text>
  <text style="stroke:none;fill:black;font-family:-apple-system,&quot;SF Pro Display&quot;,&quot;SF Pro Text&quot;,Helvetica,sans-serif;" transform="matrix(1 0 0 1 263 1989)">For optimal layout with text and other symbols, vertically align</text>
  <text style="stroke:none;fill:black;font-family:-apple-system,&quot;SF Pro Display&quot;,&quot;SF Pro Text&quot;,Helvetica,sans-serif;" transform="matrix(1 0 0 1 263 2007)">symbols with the adjacent text.</text>
  <line id="" style="fill:none;stroke:#00AEEF;stroke-width:0.5;opacity:1.0;" x1="776" x2="776" y1="1919" y2="1933"/>
  <g id="" transform="matrix(1 0 0 1 776 1933)">
   <path d="M3.31055 0.126953C3.82812 0.126953 4.08203-0.0683594 4.26758-0.605469L5.52734-4.0625L11.2891-4.0625L12.5488-0.605469C12.7344-0.0683594 12.9883 0.126953 13.4961 0.126953C14.0137 0.126953 14.3457-0.185547 14.3457-0.673828C14.3457-0.839844 14.3164-0.986328 14.2383-1.20117L9.6582-13.3887C9.43359-13.9941 9.0332-14.2871 8.4082-14.2871C7.80273-14.2871 7.39258-13.9941 7.17773-13.3984L2.59766-1.19141C2.51953-0.976562 2.49023-0.830078 2.49023-0.664062C2.49023-0.175781 2.80273 0.126953 3.31055 0.126953ZM6.00586-5.53711L8.37891-12.1094L8.42773-12.1094L10.8008-5.53711Z"/>
  </g>
  <line id="" style="fill:none;stroke:#00AEEF;stroke-width:0.5;opacity:1.0;" x1="792.836" x2="792.836" y1="1919" y2="1933"/>
  <text style="stroke:none;fill:black;font-family:-apple-system,&quot;SF Pro Display&quot;,&quot;SF Pro Text&quot;,Helvetica,sans-serif;font-weight:bold;" transform="matrix(1 0 0 1 776 1953)">Margins</text>
  <text style="stroke:none;fill:black;font-family:-apple-system,&quot;SF Pro Display&quot;,&quot;SF Pro Text&quot;,Helvetica,sans-serif;" transform="matrix(1 0 0 1 776 1971)">Leading and trailing margins on the left and right side of each symbol</text>
  <text style="stroke:none;fill:black;font-family:-apple-system,&quot;SF Pro Display&quot;,&quot;SF Pro Text&quot;,Helvetica,sans-serif;" transform="matrix(1 0 0 1 776 1989)">can be adjusted by modifying the x-location of the margin guidelines.</text>
  <text style="stroke:none;fill:black;font-family:-apple-system,&quot;SF Pro Display&quot;,&quot;SF Pro Text&quot;,Helvetica,sans-serif;" transform="matrix(1 0 0 1 776 2007)">Modifications are automatically applied proportionally to all</text>
  <text style="stroke:none;fill:black;font-family:-apple-system,&quot;SF Pro Display&quot;,&quot;SF Pro Text&quot;,Helvetica,sans-serif;" transform="matrix(1 0 0 1 776 2025)">scales and weights.</text>
  <g id="" transform="matrix(1 0 0 1 1289 1933)">
   <path d="M2.8418 1.86523L4.54102 3.57422C5.40039 4.44336 6.38672 4.38477 7.31445 3.35938L17.4902-7.85156C17.7539-7.76367 18.0273-7.7832 18.3398-7.8418L19.4043-8.03711L20.0684-7.36328L20.0293-6.80664C19.9902-6.30859 20.1172-5.92773 20.6055-5.44922L21.3672-4.70703C21.8457-4.22852 22.4609-4.19922 22.9297-4.66797L25.8398-7.58789C26.3086-8.05664 26.2891-8.65234 25.8105-9.13086L25.0391-9.89258C24.5605-10.3711 24.1895-10.5273 23.7109-10.4883L23.1348-10.4395L22.4902-11.0742L22.7344-12.1973C22.8613-12.7637 22.7051-13.2031 22.1191-13.7891L19.9219-15.9766C16.582-19.2969 12.1484-19.2188 9.25781-16.3281C8.83789-15.918 8.80859-15.3418 9.04297-14.9512C9.27734-14.5898 9.73633-14.3555 10.3809-14.5215C11.8457-14.8633 13.3691-14.9219 14.7949-13.9844L14.209-12.5293C14.0137-12.0508 13.9844-11.6504 14.1113-11.2891L3.04688-0.898438C2.06055 0.0195312 1.98242 0.996094 2.8418 1.86523ZM10.752-15.957C13.1836-17.7344 16.4746-17.4316 18.7012-15.2051L21.1328-12.793C21.3672-12.5586 21.4062-12.373 21.3379-12.0312L21.0156-10.5469L22.5195-9.0625L23.5059-9.12109C23.7598-9.13086 23.8379-9.11133 24.0332-8.91602L24.6094-8.33984L22.168-5.89844L21.5918-6.47461C21.3965-6.66992 21.3672-6.74805 21.377-7.01172L21.4453-7.98828L19.9512-9.47266L18.4277-9.21875C18.1055-9.15039 17.959-9.17969 17.7148-9.41406L15.7129-11.416C15.459-11.6504 15.4297-11.8164 15.5859-12.1875L16.4648-14.2773C14.9023-15.7324 12.8711-16.3574 10.8398-15.7617C10.6836-15.7227 10.625-15.8496 10.752-15.957ZM5.27344 2.30469L4.10156 1.14258C3.63281 0.683594 3.74023 0.341797 4.14062-0.0195312L14.9512-10.1953L16.416-8.71094L6.42578 2.27539C6.07422 2.67578 5.74219 2.77344 5.27344 2.30469Z"/>
  </g>
  <text style="stroke:none;fill:black;font-family:-apple-system,&quot;SF Pro Display&quot;,&quot;SF Pro Text&quot;,Helvetica,sans-serif;font-weight:bold;" transform="matrix(1 0 0 1 1289 1953)">Exporting</text>
  <text style="stroke:none;fill:black;font-family:-apple-system,&quot;SF Pro Display&quot;,&quot;SF Pro Text&quot;,Helvetica,sans-serif;" transform="matrix(1 0 0 1 1289 1971)">Symbols should be outlined when exporting to ensure the</text>
  <text style="stroke:none;fill:black;font-family:-apple-system,&quot;SF Pro Display&quot;,&quot;SF Pro Text&quot;,Helvetica,sans-serif;" transform="matrix(1 0 0 1 1289 1989)">design is preserved when submitting to Xcode.</text>
  <text id="template-version" style="stroke:none;fill:black;font-family:-apple-system,&quot;SF Pro Display&quot;,&quot;SF Pro Text&quot;,Helvetica,sans-serif;text-anchor:end;" transform="matrix(1 0 0 1 3036 1933)">Template v.2.0</text>
  <text style="stroke:none;fill:black;font-family:-apple-system,&quot;SF Pro Display&quot;,&quot;SF Pro Text&quot;,Helvetica,sans-serif;text-anchor:end;" transform="matrix(1 0 0 1 3036 1951)">Requires Xcode 12 or greater</text>
  <text style="stroke:none;fill:black;font-family:-apple-system,&quot;SF Pro Display&quot;,&quot;SF Pro Text&quot;,Helvetica,sans-serif;" transform="matrix(1 0 0 1 263 726)">Small</text>
  <text style="stroke:none;fill:black;font-family:-apple-system,&quot;SF Pro Display&quot;,&quot;SF Pro Text&quot;,Helvetica,sans-serif;" transform="matrix(1 0 0 1 263 1156)">Medium</text>
  <text style="stroke:none;fill:black;font-family:-apple-system,&quot;SF Pro Display&quot;,&quot;SF Pro Text&quot;,Helvetica,sans-serif;" transform="matrix(1 0 0 1 263 1586)">Large</text>
 </g>
 <g id="Guides">
  <g id="H-reference" style="fill:#27AAE1;stroke:none;" transform="matrix(1 0 0 1 339 696)">
   <path d="M0.976562 0L3.66211 0L12.9883-24.4629L45.752-24.4629L55.127 0L57.7637 0L30.6152-70.459L28.125-70.459ZM29.3457-67.1387L29.4434-67.1387L44.873-26.709L13.8672-26.709Z"/>
  </g>
  <line id="Baseline-S" style="fill:none;stroke:#27AAE1;opacity:1;stroke-width:0.5;" x1="263" x2="3036" y1="696" y2="696"/>
  <line id="Capline-S" style="fill:none;stroke:#27AAE1;opacity:1;stroke-width:0.5;" x1="263" x2="3036" y1="625.541" y2="625.541"/>
  <g id="H-reference" style="fill:#27AAE1;stroke:none;" transform="matrix(1 0 0 1 339 1126)">
   <path d="M0.976562 0L3.66211 0L12.9883-24.4629L45.752-24.4629L55.127 0L57.7637 0L30.6152-70.459L28.125-70.459ZM29.3457-67.1387L29.4434-67.1387L44.873-26.709L13.8672-26.709Z"/>
  </g>
  <line id="Baseline-M" style="fill:none;stroke:#27AAE1;opacity:1;stroke-width:0.5;" x1="263" x2="3036" y1="1126" y2="1126"/>
  <line id="Capline-M" style="fill:none;stroke:#27AAE1;opacity:1;stroke-width:0.5;" x1="263" x2="3036" y1="1055.54" y2="1055.54"/>
  <g id="H-reference" style="fill:#27AAE1;stroke:none;" transform="matrix(1 0 0 1 339 1556)">
   <path d="M0.976562 0L3.66211 0L12.9883-24.4629L45.752-24.4629L55.127 0L57.7637 0L30.6152-70.459L28.125-70.459ZM29.3457-67.1387L29.4434-67.1387L44.873-26.709L13.8672-26.709Z"/>
  </g>
  <line id="Baseline-L" style="fill:none;stroke:#27AAE1;opacity:1;stroke-width:0.5;" x1="263" x2="3036" y1="1556" y2="1556"/>
  <line id="Capline-L" style="fill:none;stroke:#27AAE1;opacity:1;stroke-width:0.5;" x1="263" x2="3036" y1="1485.54" y2="1485.54"/>
  <line id="left-margin" x1="1413.2329611506932" x2="1413.2329611506932" y1="1030.79" y2="1150.12" style="fill:none;stroke:#00AEEF;stroke-width:0.5;opacity:1.0;"/>
  <line id="right-margin" x1="1480.8397898671324" x2="1480.8397898671324" y1="1030.79" y2="1150.12" style="fill:none;stroke:#00AEEF;stroke-width:0.5;opacity:1.0;"/>
 </g>
 <g id="Symbols">
  <g id="Black-L" transform="matrix(1.0,0.0,0.0,1.0,2894.6741242916482,1480.7641438228984)">  <path stroke-linejoin="miter" fill-rule="evenodd" stroke-width="1px" stroke-opacity="1" clip-rule="evenodd" fill="#000000" stroke-miterlimit="4" stroke="none" stroke-dasharray="none" stroke-linecap="butt" d="M33.269,80.012C49.279,80.012,59.271,71.61,59.271,58.135L59.271,57.454L61.542,57.454C68.279,57.454,72.594,52.912,72.594,46.137L72.594,30.998C72.594,24.185,68.279,19.681,61.542,19.681L59.271,19.681L59.271,10.484C59.271,3.709,46.629,0,29.635,0C12.641,0,0,3.709,0,10.484L0,58.135C0,71.61,10.03,80.012,26.002,80.012L33.269,80.012ZM61.542,51.739L59.271,51.739L59.271,25.396L61.542,25.396C65.364,25.396,66.879,26.948,66.879,30.998L66.879,46.137C66.879,50.15,65.364,51.739,61.542,51.739ZM29.635,12.566C16.388,12.566,7.229,11.127,7.229,8.97C7.229,6.813,16.388,5.337,29.635,5.337C42.883,5.337,52.042,6.813,52.042,8.97C52.042,10.586,46.903,11.799,38.757,12.305L38.757,27.13L46.508,27.13C48.649,27.13,50.384,28.865,50.384,31.006L50.384,58.135C50.384,60.276,48.649,62.011,46.508,62.011L27.13,62.011C24.989,62.011,23.254,60.276,23.254,58.135L23.254,31.006C23.254,28.865,24.989,27.13,27.13,27.13L34.881,27.13L34.881,12.485C33.22,12.538,31.467,12.566,29.635,12.566ZM29.635,12.566"/>
</g>
  <g id="Heavy-L" transform="matrix(1.0,0.0,0.0,1.0,2597.964124291648,1480.7641438228984)">  <path stroke="none" stroke-linecap="butt" fill="#000000" stroke-miterlimit="4" fill-rule="evenodd" stroke-width="1px" clip-rule="evenodd" stroke-linejoin="miter" stroke-opacity="1" stroke-dasharray="none" d="M33.269,80.012C49.279,80.012,59.271,71.61,59.271,58.135L59.271,57.454L61.542,57.454C68.279,57.454,72.594,52.912,72.594,46.137L72.594,30.998C72.594,24.185,68.279,19.681,61.542,19.681L59.271,19.681L59.271,10.484C59.271,3.709,46.629,0,29.635,0C12.641,0,0,3.709,0,10.484L0,58.135C0,71.61,10.03,80.012,26.002,80.012L33.269,80.012ZM61.542,51.739L59.271,51.739L59.271,25.396L61.542,25.396C65.364,25.396,66.879,26.948,66.879,30.998L66.879,46.137C66.879,50.15,65.364,51.739,61.542,51.739ZM29.635,12.566C16.388,12.566,7.229,11.127,7.229,8.97C7.229,6.813,16.388,5.337,29.635,5.337C42.883,5.337,52.042,6.813,52.042,8.97C52.042,10.586,46.903,11.799,38.757,12.305L38.757,27.13L46.508,27.13C48.649,27.13,50.384,28.865,50.384,31.006L50.384,58.135C50.384,60.276,48.649,62.011,46.508,62.011L27.13,62.011C24.989,62.011,23.254,60.276,23.254,58.135L23.254,31.006C23.254,28.865,24.989,27.13,27.13,27.13L34.881,27.13L34.881,12.485C33.22,12.538,31.467,12.566,29.635,12.566ZM29.635,12.566"/>
</g>
  <g id="Bold-L" transform="matrix(1.0,0.0,0.0,1.0,2301.254124291648,1480.7641438228984)">  <path stroke-width="1px" fill-rule="evenodd" stroke-linecap="butt" clip-rule="evenodd" stroke="none" stroke-opacity="1" stroke-miterlimit="4" stroke-dasharray="none" fill="#000000" stroke-linejoin="miter" d="M33.269,80.012C49.279,80.012,59.271,71.61,59.271,58.135L59.271,57.454L61.542,57.454C68.279,57.454,72.594,52.912,72.594,46.137L72.594,30.998C72.594,24.185,68.279,19.681,61.542,19.681L59.271,19.681L59.271,10.484C59.271,3.709,46.629,0,29.635,0C12.641,0,0,3.709,0,10.484L0,58.135C0,71.61,10.03,80.012,26.002,80.012L33.269,80.012ZM61.542,51.739L59.271,51.739L59.271,25.396L61.542,25.396C65.364,25.396,66.879,26.948,66.879,30.998L66.879,46.137C66.879,50.15,65.364,51.739,61.542,51.739ZM29.635,12.566C16.388,12.566,7.229,11.127,7.229,8.97C7.229,6.813,16.388,5.337,29.635,5.337C42.883,5.337,52.042,6.813,52.042,8.97C52.042,10.586,46.903,11.799,38.757,12.305L38.757,27.13L46.508,27.13C48.649,27.13,50.384,28.865,50.384,31.006L50.384,58.135C50.384,60.276,48.649,62.011,46.508,62.011L27.13,62.011C24.989,62.011,23.254,60.276,23.254,58.135L23.254,31.006C23.254,28.865,24.989,27.13,27.13,27.13L34.881,27.13L34.881,12.485C33.22,12.538,31.467,12.566,29.635,12.566ZM29.635,12.566"/>
</g>
  <g id="Semibold-L" transform="matrix(1.0,0.0,0.0,1.0,2004.5441242916484,1480.7641438228984)">  <path stroke="none" fill-rule="evenodd" fill="#000000" stroke-linejoin="miter" stroke-width="1px" clip-rule="evenodd" stroke-miterlimit="4" stroke-linecap="butt" stroke-dasharray="none" stroke-opacity="1" d="M33.269,80.012C49.279,80.012,59.271,71.61,59.271,58.135L59.271,57.454L61.542,57.454C68.279,57.454,72.594,52.912,72.594,46.137L72.594,30.998C72.594,24.185,68.279,19.681,61.542,19.681L59.271,19.681L59.271,10.484C59.271,3.709,46.629,0,29.635,0C12.641,0,0,3.709,0,10.484L0,58.135C0,71.61,10.03,80.012,26.002,80.012L33.269,80.012ZM61.542,51.739L59.271,51.739L59.271,25.396L61.542,25.396C65.364,25.396,66.879,26.948,66.879,30.998L66.879,46.137C66.879,50.15,65.364,51.739,61.542,51.739ZM29.635,12.566C16.388,12.566,7.229,11.127,7.229,8.97C7.229,6.813,16.388,5.337,29.635,5.337C42.883,5.337,52.042,6.813,52.042,8.97C52.042,10.586,46.903,11.799,38.757,12.305L38.757,27.13L46.508,27.13C48.649,27.13,50.384,28.865,50.384,31.006L50.384,58.135C50.384,60.276,48.649,62.011,46.508,62.011L27.13,62.011C24.989,62.011,23.254,60.276,23.254,58.135L23.254,31.006C23.254,28.865,24.989,27.13,27.13,27.13L34.881,27.13L34.881,12.485C33.22,12.538,31.467,12.566,29.635,12.566ZM29.635,12.566"/>
</g>
  <g id="Medium-L" transform="matrix(1.0,0.0,0.0,1.0,1707.8341242916483,1480.7641438228984)">  <path clip-rule="evenodd" stroke-linejoin="miter" stroke-width="1px" stroke="none" stroke-opacity="1" fill="#000000" stroke-miterlimit="4" stroke-linecap="butt" stroke-dasharray="none" fill-rule="evenodd" d="M33.269,80.012C49.279,80.012,59.271,71.61,59.271,58.135L59.271,57.454L61.542,57.454C68.279,57.454,72.594,52.912,72.594,46.137L72.594,30.998C72.594,24.185,68.279,19.681,61.542,19.681L59.271,19.681L59.271,10.484C59.271,3.709,46.629,0,29.635,0C12.641,0,0,3.709,0,10.484L0,58.135C0,71.61,10.03,80.012,26.002,80.012L33.269,80.012ZM61.542,51.739L59.271,51.739L59.271,25.396L61.542,25.396C65.364,25.396,66.879,26.948,66.879,30.998L66.879,46.137C66.879,50.15,65.364,51.739,61.542,51.739ZM29.635,12.566C16.388,12.566,7.229,11.127,7.229,8.97C7.229,6.813,16.388,5.337,29.635,5.337C42.883,5.337,52.042,6.813,52.042,8.97C52.042,10.586,46.903,11.799,38.757,12.305L38.757,27.13L46.508,27.13C48.649,27.13,50.384,28.865,50.384,31.006L50.384,58.135C50.384,60.276,48.649,62.011,46.508,62.011L27.13,62.011C24.989,62.011,23.254,60.276,23.254,58.135L23.254,31.006C23.254,28.865,24.989,27.13,27.13,27.13L34.881,27.13L34.881,12.485C33.22,12.538,31.467,12.566,29.635,12.566ZM29.635,12.566"/>
</g>
  <g id="Regular-L" transform="matrix(1.0,0.0,0.0,1.0,1411.1241242916483,1480.7641438228984)">  <path fill="#000000" stroke-miterlimit="4" fill-rule="evenodd" stroke="none" clip-rule="evenodd" stroke-linecap="butt" stroke-opacity="1" stroke-width="1px" stroke-linejoin="miter" stroke-dasharray="none" d="M33.269,80.012C49.279,80.012,59.271,71.61,59.271,58.135L59.271,57.454L61.542,57.454C68.279,57.454,72.594,52.912,72.594,46.137L72.594,30.998C72.594,24.185,68.279,19.681,61.542,19.681L59.271,19.681L59.271,10.484C59.271,3.709,46.629,0,29.635,0C12.641,0,0,3.709,0,10.484L0,58.135C0,71.61,10.03,80.012,26.002,80.012L33.269,80.012ZM61.542,51.739L59.271,51.739L59.271,25.396L61.542,25.396C65.364,25.396,66.879,26.948,66.879,30.998L66.879,46.137C66.879,50.15,65.364,51.739,61.542,51.739ZM29.635,12.566C16.388,12.566,7.229,11.127,7.229,8.97C7.229,6.813,16.388,5.337,29.635,5.337C42.883,5.337,52.042,6.813,52.042,8.97C52.042,10.586,46.903,11.799,38.757,12.305L38.757,27.13L46.508,27.13C48.649,27.13,50.384,28.865,50.384,31.006L50.384,58.135C50.384,60.276,48.649,62.011,46.508,62.011L27.13,62.011C24.989,62.011,23.254,60.276,23.254,58.135L23.254,31.006C23.254,28.865,24.989,27.13,27.13,27.13L34.881,27.13L34.881,12.485C33.22,12.538,31.467,12.566,29.635,12.566ZM29.635,12.566"/>
</g>
  <g id="Light-L" transform="matrix(1.0,0.0,0.0,1.0,1114.4141242916485,1480.7641438228984)">  <path stroke-linecap="butt" fill="#000000" fill-rule="evenodd" clip-rule="evenodd" stroke-opacity="1" stroke-linejoin="miter" stroke-miterlimit="4" stroke-dasharray="none" stroke-width="1px" stroke="none" d="M33.269,80.012C49.279,80.012,59.271,71.61,59.271,58.135L59.271,57.454L61.542,57.454C68.279,57.454,72.594,52.912,72.594,46.137L72.594,30.998C72.594,24.185,68.279,19.681,61.542,19.681L59.271,19.681L59.271,10.484C59.271,3.709,46.629,0,29.635,0C12.641,0,0,3.709,0,10.484L0,58.135C0,71.61,10.03,80.012,26.002,80.012L33.269,80.012ZM61.542,51.739L59.271,51.739L59.271,25.396L61.542,25.396C65.364,25.396,66.879,26.948,66.879,30.998L66.879,46.137C66.879,50.15,65.364,51.739,61.542,51.739ZM29.635,12.566C16.388,12.566,7.229,11.127,7.229,8.97C7.229,6.813,16.388,5.337,29.635,5.337C42.883,5.337,52.042,6.813,52.042,8.97C52.042,10.586,46.903,11.799,38.757,12.305L38.757,27.13L46.508,27.13C48.649,27.13,50.384,28.865,50.384,31.006L50.384,58.135C50.384,60.276,48.649,62.011,46.508,62.011L27.13,62.011C24.989,62.011,23.254,60.276,23.254,58.135L23.254,31.006C23.254,28.865,24.989,27.13,27.13,27.13L34.881,27.13L34.881,12.485C33.22,12.538,31.467,12.566,29.635,12.566ZM29.635,12.566"/>
</g>
  <g id="Thin-L" transform="matrix(1.0,0.0,0.0,1.0,817.7041242916483,1480.7641438228984)">  <path fill-rule="evenodd" stroke="none" stroke-linecap="butt" stroke-dasharray="none" stroke-linejoin="miter" stroke-width="1px" fill="#000000" stroke-miterlimit="4" clip-rule="evenodd" stroke-opacity="1" d="M33.269,80.012C49.279,80.012,59.271,71.61,59.271,58.135L59.271,57.454L61.542,57.454C68.279,57.454,72.594,52.912,72.594,46.137L72.594,30.998C72.594,24.185,68.279,19.681,61.542,19.681L59.271,19.681L59.271,10.484C59.271,3.709,46.629,0,29.635,0C12.641,0,0,3.709,0,10.484L0,58.135C0,71.61,10.03,80.012,26.002,80.012L33.269,80.012ZM61.542,51.739L59.271,51.739L59.271,25.396L61.542,25.396C65.364,25.396,66.879,26.948,66.879,30.998L66.879,46.137C66.879,50.15,65.364,51.739,61.542,51.739ZM29.635,12.566C16.388,12.566,7.229,11.127,7.229,8.97C7.229,6.813,16.388,5.337,29.635,5.337C42.883,5.337,52.042,6.813,52.042,8.97C52.042,10.586,46.903,11.799,38.757,12.305L38.757,27.13L46.508,27.13C48.649,27.13,50.384,28.865,50.384,31.006L50.384,58.135C50.384,60.276,48.649,62.011,46.508,62.011L27.13,62.011C24.989,62.011,23.254,60.276,23.254,58.135L23.254,31.006C23.254,28.865,24.989,27.13,27.13,27.13L34.881,27.13L34.881,12.485C33.22,12.538,31.467,12.566,29.635,12.566ZM29.635,12.566"/>
</g>
  <g id="Ultralight-L" transform="matrix(1.0,0.0,0.0,1.0,520.9941242916483,1480.7641438228984)">  <path stroke-opacity="1" clip-rule="evenodd" stroke-miterlimit="4" stroke-width="1px" stroke-linecap="butt" fill-rule="evenodd" stroke="none" stroke-linejoin="miter" stroke-dasharray="none" fill="#000000" d="M33.269,80.012C49.279,80.012,59.271,71.61,59.271,58.135L59.271,57.454L61.542,57.454C68.279,57.454,72.594,52.912,72.594,46.137L72.594,30.998C72.594,24.185,68.279,19.681,61.542,19.681L59.271,19.681L59.271,10.484C59.271,3.709,46.629,0,29.635,0C12.641,0,0,3.709,0,10.484L0,58.135C0,71.61,10.03,80.012,26.002,80.012L33.269,80.012ZM61.542,51.739L59.271,51.739L59.271,25.396L61.542,25.396C65.364,25.396,66.879,26.948,66.879,30.998L66.879,46.137C66.879,50.15,65.364,51.739,61.542,51.739ZM29.635,12.566C16.388,12.566,7.229,11.127,7.229,8.97C7.229,6.813,16.388,5.337,29.635,5.337C42.883,5.337,52.042,6.813,52.042,8.97C52.042,10.586,46.903,11.799,38.757,12.305L38.757,27.13L46.508,27.13C48.649,27.13,50.384,28.865,50.384,31.006L50.384,58.135C50.384,60.276,48.649,62.011,46.508,62.011L27.13,62.011C24.989,62.011,23.254,60.276,23.254,58.135L23.254,31.006C23.254,28.865,24.989,27.13,27.13,27.13L34.881,27.13L34.881,12.485C33.22,12.538,31.467,12.566,29.635,12.566ZM29.635,12.566"/>
</g>
  <g id="Black-M" transform="matrix(1.0,0.0,0.0,1.0,2903.6676932493397,1059.7577127805898)">  <path stroke-linejoin="miter" fill-rule="evenodd" stroke-width="1px" stroke-opacity="1" clip-rule="evenodd" fill="#000000" stroke-miterlimit="4" stroke="none" stroke-dasharray="none" stroke-linecap="butt" d="M25.79,62.025C38.201,62.025,45.946,55.511,45.946,45.066L45.946,44.538L47.707,44.538C52.929,44.538,56.274,41.017,56.274,35.765L56.274,24.029C56.274,18.748,52.929,15.257,47.707,15.257L45.946,15.257L45.946,8.127C45.946,2.875,36.147,0,22.973,0C9.8,0,0,2.875,0,8.127L0,45.066C0,55.511,7.775,62.025,20.157,62.025L25.79,62.025ZM47.707,40.108L45.946,40.108L45.946,19.687L47.707,19.687C50.67,19.687,51.844,20.89,51.844,24.029L51.844,35.765C51.844,38.876,50.67,40.108,47.707,40.108ZM22.973,9.741C12.704,9.741,5.604,8.626,5.604,6.954C5.604,5.281,12.704,4.137,22.973,4.137C33.242,4.137,40.342,5.281,40.342,6.954C40.342,8.206,36.359,9.146,30.044,9.539L30.044,21.031L36.053,21.031C37.712,21.031,39.057,22.376,39.057,24.035L39.057,45.066C39.057,46.726,37.712,48.071,36.053,48.071L21.031,48.071C19.372,48.071,18.026,46.726,18.026,45.066L18.026,24.035C18.026,22.376,19.372,21.031,21.031,21.031L27.04,21.031L27.04,9.678C25.752,9.72,24.393,9.741,22.973,9.741ZM22.973,9.741"/>
</g>
  <g id="Heavy-M" transform="matrix(1.0,0.0,0.0,1.0,2606.9576932493396,1059.7577127805898)">  <path stroke="none" stroke-linecap="butt" fill="#000000" stroke-miterlimit="4" fill-rule="evenodd" stroke-width="1px" clip-rule="evenodd" stroke-linejoin="miter" stroke-opacity="1" stroke-dasharray="none" d="M25.79,62.025C38.201,62.025,45.946,55.511,45.946,45.066L45.946,44.538L47.707,44.538C52.929,44.538,56.274,41.017,56.274,35.765L56.274,24.029C56.274,18.748,52.929,15.257,47.707,15.257L45.946,15.257L45.946,8.127C45.946,2.875,36.147,0,22.973,0C9.8,0,0,2.875,0,8.127L0,45.066C0,55.511,7.775,62.025,20.157,62.025L25.79,62.025ZM47.707,40.108L45.946,40.108L45.946,19.687L47.707,19.687C50.67,19.687,51.844,20.89,51.844,24.029L51.844,35.765C51.844,38.876,50.67,40.108,47.707,40.108ZM22.973,9.741C12.704,9.741,5.604,8.626,5.604,6.954C5.604,5.281,12.704,4.137,22.973,4.137C33.242,4.137,40.342,5.281,40.342,6.954C40.342,8.206,36.359,9.146,30.044,9.539L30.044,21.031L36.053,21.031C37.712,21.031,39.057,22.376,39.057,24.035L39.057,45.066C39.057,46.726,37.712,48.071,36.053,48.071L21.031,48.071C19.372,48.071,18.026,46.726,18.026,45.066L18.026,24.035C18.026,22.376,19.372,21.031,21.031,21.031L27.04,21.031L27.04,9.678C25.752,9.72,24.393,9.741,22.973,9.741ZM22.973,9.741"/>
</g>
  <g id="Bold-M" transform="matrix(1.0,0.0,0.0,1.0,2310.2476932493396,1059.7577127805898)">  <path stroke-width="1px" fill-rule="evenodd" stroke-linecap="butt" clip-rule="evenodd" stroke="none" stroke-opacity="1" stroke-miterlimit="4" stroke-dasharray="none" fill="#000000" stroke-linejoin="miter" d="M25.79,62.025C38.201,62.025,45.946,55.511,45.946,45.066L45.946,44.538L47.707,44.538C52.929,44.538,56.274,41.017,56.274,35.765L56.274,24.029C56.274,18.748,52.929,15.257,47.707,15.257L45.946,15.257L45.946,8.127C45.946,2.875,36.147,0,22.973,0C9.8,0,0,2.875,0,8.127L0,45.066C0,55.511,7.775,62.025,20.157,62.025L25.79,62.025ZM47.707,40.108L45.946,40.108L45.946,19.687L47.707,19.687C50.67,19.687,51.844,20.89,51.844,24.029L51.844,35.765C51.844,38.876,50.67,40.108,47.707,40.108ZM22.973,9.741C12.704,9.741,5.604,8.626,5.604,6.954C5.604,5.281,12.704,4.137,22.973,4.137C33.242,4.137,40.342,5.281,40.342,6.954C40.342,8.206,36.359,9.146,30.044,9.539L30.044,21.031L36.053,21.031C37.712,21.031,39.057,22.376,39.057,24.035L39.057,45.066C39.057,46.726,37.712,48.071,36.053,48.071L21.031,48.071C19.372,48.071,18.026,46.726,18.026,45.066L18.026,24.035C18.026,22.376,19.372,21.031,21.031,21.031L27.04,21.031L27.04,9.678C25.752,9.72,24.393,9.741,22.973,9.741ZM22.973,9.741"/>
</g>
  <g id="Semibold-M" transform="matrix(1.0,0.0,0.0,1.0,2013.5376932493398,1059.7577127805898)">  <path stroke="none" fill-rule="evenodd" fill="#000000" stroke-linejoin="miter" stroke-width="1px" clip-rule="evenodd" stroke-miterlimit="4" stroke-linecap="butt" stroke-dasharray="none" stroke-opacity="1" d="M25.79,62.025C38.201,62.025,45.946,55.511,45.946,45.066L45.946,44.538L47.707,44.538C52.929,44.538,56.274,41.017,56.274,35.765L56.274,24.029C56.274,18.748,52.929,15.257,47.707,15.257L45.946,15.257L45.946,8.127C45.946,2.875,36.147,0,22.973,0C9.8,0,0,2.875,0,8.127L0,45.066C0,55.511,7.775,62.025,20.157,62.025L25.79,62.025ZM47.707,40.108L45.946,40.108L45.946,19.687L47.707,19.687C50.67,19.687,51.844,20.89,51.844,24.029L51.844,35.765C51.844,38.876,50.67,40.108,47.707,40.108ZM22.973,9.741C12.704,9.741,5.604,8.626,5.604,6.954C5.604,5.281,12.704,4.137,22.973,4.137C33.242,4.137,40.342,5.281,40.342,6.954C40.342,8.206,36.359,9.146,30.044,9.539L30.044,21.031L36.053,21.031C37.712,21.031,39.057,22.376,39.057,24.035L39.057,45.066C39.057,46.726,37.712,48.071,36.053,48.071L21.031,48.071C19.372,48.071,18.026,46.726,18.026,45.066L18.026,24.035C18.026,22.376,19.372,21.031,21.031,21.031L27.04,21.031L27.04,9.678C25.752,9.72,24.393,9.741,22.973,9.741ZM22.973,9.741"/>
</g>
  <g id="Medium-M" transform="matrix(1.0,0.0,0.0,1.0,1716.8276932493397,1059.7577127805898)">  <path clip-rule="evenodd" stroke-linejoin="miter" stroke-width="1px" stroke="none" stroke-opacity="1" fill="#000000" stroke-miterlimit="4" stroke-linecap="butt" stroke-dasharray="none" fill-rule="evenodd" d="M25.79,62.025C38.201,62.025,45.946,55.511,45.946,45.066L45.946,44.538L47.707,44.538C52.929,44.538,56.274,41.017,56.274,35.765L56.274,24.029C56.274,18.748,52.929,15.257,47.707,15.257L45.946,15.257L45.946,8.127C45.946,2.875,36.147,0,22.973,0C9.8,0,0,2.875,0,8.127L0,45.066C0,55.511,7.775,62.025,20.157,62.025L25.79,62.025ZM47.707,40.108L45.946,40.108L45.946,19.687L47.707,19.687C50.67,19.687,51.844,20.89,51.844,24.029L51.844,35.765C51.844,38.876,50.67,40.108,47.707,40.108ZM22.973,9.741C12.704,9.741,5.604,8.626,5.604,6.954C5.604,5.281,12.704,4.137,22.973,4.137C33.242,4.137,40.342,5.281,40.342,6.954C40.342,8.206,36.359,9.146,30.044,9.539L30.044,21.031L36.053,21.031C37.712,21.031,39.057,22.376,39.057,24.035L39.057,45.066C39.057,46.726,37.712,48.071,36.053,48.071L21.031,48.071C19.372,48.071,18.026,46.726,18.026,45.066L18.026,24.035C18.026,22.376,19.372,21.031,21.031,21.031L27.04,21.031L27.04,9.678C25.752,9.72,24.393,9.741,22.973,9.741ZM22.973,9.741"/>
</g>
  <g id="Regular-M" transform="matrix(1.0,0.0,0.0,1.0,1420.1176932493397,1059.7577127805898)">  <path fill="#000000" stroke-miterlimit="4" fill-rule="evenodd" stroke="none" clip-rule="evenodd" stroke-linecap="butt" stroke-opacity="1" stroke-width="1px" stroke-linejoin="miter" stroke-dasharray="none" d="M25.79,62.025C38.201,62.025,45.946,55.511,45.946,45.066L45.946,44.538L47.707,44.538C52.929,44.538,56.274,41.017,56.274,35.765L56.274,24.029C56.274,18.748,52.929,15.257,47.707,15.257L45.946,15.257L45.946,8.127C45.946,2.875,36.147,0,22.973,0C9.8,0,0,2.875,0,8.127L0,45.066C0,55.511,7.775,62.025,20.157,62.025L25.79,62.025ZM47.707,40.108L45.946,40.108L45.946,19.687L47.707,19.687C50.67,19.687,51.844,20.89,51.844,24.029L51.844,35.765C51.844,38.876,50.67,40.108,47.707,40.108ZM22.973,9.741C12.704,9.741,5.604,8.626,5.604,6.954C5.604,5.281,12.704,4.137,22.973,4.137C33.242,4.137,40.342,5.281,40.342,6.954C40.342,8.206,36.359,9.146,30.044,9.539L30.044,21.031L36.053,21.031C37.712,21.031,39.057,22.376,39.057,24.035L39.057,45.066C39.057,46.726,37.712,48.071,36.053,48.071L21.031,48.071C19.372,48.071,18.026,46.726,18.026,45.066L18.026,24.035C18.026,22.376,19.372,21.031,21.031,21.031L27.04,21.031L27.04,9.678C25.752,9.72,24.393,9.741,22.973,9.741ZM22.973,9.741"/>
</g>
  <g id="Light-M" transform="matrix(1.0,0.0,0.0,1.0,1123.40769324934,1059.7577127805898)">  <path stroke-linecap="butt" fill="#000000" fill-rule="evenodd" clip-rule="evenodd" stroke-opacity="1" stroke-linejoin="miter" stroke-miterlimit="4" stroke-dasharray="none" stroke-width="1px" stroke="none" d="M25.79,62.025C38.201,62.025,45.946,55.511,45.946,45.066L45.946,44.538L47.707,44.538C52.929,44.538,56.274,41.017,56.274,35.765L56.274,24.029C56.274,18.748,52.929,15.257,47.707,15.257L45.946,15.257L45.946,8.127C45.946,2.875,36.147,0,22.973,0C9.8,0,0,2.875,0,8.127L0,45.066C0,55.511,7.775,62.025,20.157,62.025L25.79,62.025ZM47.707,40.108L45.946,40.108L45.946,19.687L47.707,19.687C50.67,19.687,51.844,20.89,51.844,24.029L51.844,35.765C51.844,38.876,50.67,40.108,47.707,40.108ZM22.973,9.741C12.704,9.741,5.604,8.626,5.604,6.954C5.604,5.281,12.704,4.137,22.973,4.137C33.242,4.137,40.342,5.281,40.342,6.954C40.342,8.206,36.359,9.146,30.044,9.539L30.044,21.031L36.053,21.031C37.712,21.031,39.057,22.376,39.057,24.035L39.057,45.066C39.057,46.726,37.712,48.071,36.053,48.071L21.031,48.071C19.372,48.071,18.026,46.726,18.026,45.066L18.026,24.035C18.026,22.376,19.372,21.031,21.031,21.031L27.04,21.031L27.04,9.678C25.752,9.72,24.393,9.741,22.973,9.741ZM22.973,9.741"/>
</g>
  <g id="Thin-M" transform="matrix(1.0,0.0,0.0,1.0,826.6976932493399,1059.7577127805898)">  <path fill-rule="evenodd" stroke="none" stroke-linecap="butt" stroke-dasharray="none" stroke-linejoin="miter" stroke-width="1px" fill="#000000" stroke-miterlimit="4" clip-rule="evenodd" stroke-opacity="1" d="M25.79,62.025C38.201,62.025,45.946,55.511,45.946,45.066L45.946,44.538L47.707,44.538C52.929,44.538,56.274,41.017,56.274,35.765L56.274,24.029C56.274,18.748,52.929,15.257,47.707,15.257L45.946,15.257L45.946,8.127C45.946,2.875,36.147,0,22.973,0C9.8,0,0,2.875,0,8.127L0,45.066C0,55.511,7.775,62.025,20.157,62.025L25.79,62.025ZM47.707,40.108L45.946,40.108L45.946,19.687L47.707,19.687C50.67,19.687,51.844,20.89,51.844,24.029L51.844,35.765C51.844,38.876,50.67,40.108,47.707,40.108ZM22.973,9.741C12.704,9.741,5.604,8.626,5.604,6.954C5.604,5.281,12.704,4.137,22.973,4.137C33.242,4.137,40.342,5.281,40.342,6.954C40.342,8.206,36.359,9.146,30.044,9.539L30.044,21.031L36.053,21.031C37.712,21.031,39.057,22.376,39.057,24.035L39.057,45.066C39.057,46.726,37.712,48.071,36.053,48.071L21.031,48.071C19.372,48.071,18.026,46.726,18.026,45.066L18.026,24.035C18.026,22.376,19.372,21.031,21.031,21.031L27.04,21.031L27.04,9.678C25.752,9.72,24.393,9.741,22.973,9.741ZM22.973,9.741"/>
</g>
  <g id="Ultralight-M" transform="matrix(1.0,0.0,0.0,1.0,529.9876932493398,1059.7577127805898)">  <path stroke-opacity="1" clip-rule="evenodd" stroke-miterlimit="4" stroke-width="1px" stroke-linecap="butt" fill-rule="evenodd" stroke="none" stroke-linejoin="miter" stroke-dasharray="none" fill="#000000" d="M25.79,62.025C38.201,62.025,45.946,55.511,45.946,45.066L45.946,44.538L47.707,44.538C52.929,44.538,56.274,41.017,56.274,35.765L56.274,24.029C56.274,18.748,52.929,15.257,47.707,15.257L45.946,15.257L45.946,8.127C45.946,2.875,36.147,0,22.973,0C9.8,0,0,2.875,0,8.127L0,45.066C0,55.511,7.775,62.025,20.157,62.025L25.79,62.025ZM47.707,40.108L45.946,40.108L45.946,19.687L47.707,19.687C50.67,19.687,51.844,20.89,51.844,24.029L51.844,35.765C51.844,38.876,50.67,40.108,47.707,40.108ZM22.973,9.741C12.704,9.741,5.604,8.626,5.604,6.954C5.604,5.281,12.704,4.137,22.973,4.137C33.242,4.137,40.342,5.281,40.342,6.954C40.342,8.206,36.359,9.146,30.044,9.539L30.044,21.031L36.053,21.031C37.712,21.031,39.057,22.376,39.057,24.035L39.057,45.066C39.057,46.726,37.712,48.071,36.053,48.071L21.031,48.071C19.372,48.071,18.026,46.726,18.026,45.066L18.026,24.035C18.026,22.376,19.372,21.031,21.031,21.031L27.04,21.031L27.04,9.678C25.752,9.72,24.393,9.741,22.973,9.741ZM22.973,9.741"/>
</g>
  <g id="Black-S" transform="matrix(1.0,0.0,0.0,1.0,2910.397363814233,636.4873833454831)">  <path stroke-linejoin="miter" fill-rule="evenodd" stroke-width="1px" stroke-opacity="1" clip-rule="evenodd" fill="#000000" stroke-miterlimit="4" stroke="none" stroke-dasharray="none" stroke-linecap="butt" d="M20.193,48.565C29.911,48.565,35.976,43.465,35.976,35.287L35.976,34.873L37.354,34.873C41.444,34.873,44.063,32.116,44.063,28.004L44.063,18.815C44.063,14.68,41.444,11.946,37.354,11.946L35.976,11.946L35.976,6.364C35.976,2.251,28.303,0,17.988,0C7.673,0,0,2.251,0,6.364L0,35.287C0,43.465,6.088,48.565,15.783,48.565L20.193,48.565ZM37.354,31.404L35.976,31.404L35.976,15.415L37.354,15.415C39.675,15.415,40.594,16.357,40.594,18.815L40.594,28.004C40.594,30.44,39.675,31.404,37.354,31.404ZM17.988,7.627C9.947,7.627,4.388,6.754,4.388,5.445C4.388,4.135,9.947,3.239,17.988,3.239C26.029,3.239,31.588,4.135,31.588,5.445C31.588,6.425,28.469,7.161,23.525,7.469L23.525,16.467L28.229,16.467C29.529,16.467,30.582,17.52,30.582,18.82L30.582,35.287C30.582,36.586,29.529,37.639,28.229,37.639L16.467,37.639C15.168,37.639,14.115,36.586,14.115,35.287L14.115,18.82C14.115,17.52,15.168,16.467,16.467,16.467L21.172,16.467L21.172,7.578C20.164,7.61,19.099,7.627,17.988,7.627ZM17.988,7.627"/>
</g>
  <g id="Heavy-S" transform="matrix(1.0,0.0,0.0,1.0,2613.687363814233,636.4873833454831)">  <path stroke="none" stroke-linecap="butt" fill="#000000" stroke-miterlimit="4" fill-rule="evenodd" stroke-width="1px" clip-rule="evenodd" stroke-linejoin="miter" stroke-opacity="1" stroke-dasharray="none" d="M20.193,48.565C29.911,48.565,35.976,43.465,35.976,35.287L35.976,34.873L37.354,34.873C41.444,34.873,44.063,32.116,44.063,28.004L44.063,18.815C44.063,14.68,41.444,11.946,37.354,11.946L35.976,11.946L35.976,6.364C35.976,2.251,28.303,0,17.988,0C7.673,0,0,2.251,0,6.364L0,35.287C0,43.465,6.088,48.565,15.783,48.565L20.193,48.565ZM37.354,31.404L35.976,31.404L35.976,15.415L37.354,15.415C39.675,15.415,40.594,16.357,40.594,18.815L40.594,28.004C40.594,30.44,39.675,31.404,37.354,31.404ZM17.988,7.627C9.947,7.627,4.388,6.754,4.388,5.445C4.388,4.135,9.947,3.239,17.988,3.239C26.029,3.239,31.588,4.135,31.588,5.445C31.588,6.425,28.469,7.161,23.525,7.469L23.525,16.467L28.229,16.467C29.529,16.467,30.582,17.52,30.582,18.82L30.582,35.287C30.582,36.586,29.529,37.639,28.229,37.639L16.467,37.639C15.168,37.639,14.115,36.586,14.115,35.287L14.115,18.82C14.115,17.52,15.168,16.467,16.467,16.467L21.172,16.467L21.172,7.578C20.164,7.61,19.099,7.627,17.988,7.627ZM17.988,7.627"/>
</g>
  <g id="Bold-S" transform="matrix(1.0,0.0,0.0,1.0,2316.977363814233,636.4873833454831)">  <path stroke-width="1px" fill-rule="evenodd" stroke-linecap="butt" clip-rule="evenodd" stroke="none" stroke-opacity="1" stroke-miterlimit="4" stroke-dasharray="none" fill="#000000" stroke-linejoin="miter" d="M20.193,48.565C29.911,48.565,35.976,43.465,35.976,35.287L35.976,34.873L37.354,34.873C41.444,34.873,44.063,32.116,44.063,28.004L44.063,18.815C44.063,14.68,41.444,11.946,37.354,11.946L35.976,11.946L35.976,6.364C35.976,2.251,28.303,0,17.988,0C7.673,0,0,2.251,0,6.364L0,35.287C0,43.465,6.088,48.565,15.783,48.565L20.193,48.565ZM37.354,31.404L35.976,31.404L35.976,15.415L37.354,15.415C39.675,15.415,40.594,16.357,40.594,18.815L40.594,28.004C40.594,30.44,39.675,31.404,37.354,31.404ZM17.988,7.627C9.947,7.627,4.388,6.754,4.388,5.445C4.388,4.135,9.947,3.239,17.988,3.239C26.029,3.239,31.588,4.135,31.588,5.445C31.588,6.425,28.469,7.161,23.525,7.469L23.525,16.467L28.229,16.467C29.529,16.467,30.582,17.52,30.582,18.82L30.582,35.287C30.582,36.586,29.529,37.639,28.229,37.639L16.467,37.639C15.168,37.639,14.115,36.586,14.115,35.287L14.115,18.82C14.115,17.52,15.168,16.467,16.467,16.467L21.172,16.467L21.172,7.578C20.164,7.61,19.099,7.627,17.988,7.627ZM17.988,7.627"/>
</g>
  <g id="Semibold-S" transform="matrix(1.0,0.0,0.0,1.0,2020.267363814233,636.4873833454831)">  <path stroke="none" fill-rule="evenodd" fill="#000000" stroke-linejoin="miter" stroke-width="1px" clip-rule="evenodd" stroke-miterlimit="4" stroke-linecap="butt" stroke-dasharray="none" stroke-opacity="1" d="M20.193,48.565C29.911,48.565,35.976,43.465,35.976,35.287L35.976,34.873L37.354,34.873C41.444,34.873,44.063,32.116,44.063,28.004L44.063,18.815C44.063,14.68,41.444,11.946,37.354,11.946L35.976,11.946L35.976,6.364C35.976,2.251,28.303,0,17.988,0C7.673,0,0,2.251,0,6.364L0,35.287C0,43.465,6.088,48.565,15.783,48.565L20.193,48.565ZM37.354,31.404L35.976,31.404L35.976,15.415L37.354,15.415C39.675,15.415,40.594,16.357,40.594,18.815L40.594,28.004C40.594,30.44,39.675,31.404,37.354,31.404ZM17.988,7.627C9.947,7.627,4.388,6.754,4.388,5.445C4.388,4.135,9.947,3.239,17.988,3.239C26.029,3.239,31.588,4.135,31.588,5.445C31.588,6.425,28.469,7.161,23.525,7.469L23.525,16.467L28.229,16.467C29.529,16.467,30.582,17.52,30.582,18.82L30.582,35.287C30.582,36.586,29.529,37.639,28.229,37.639L16.467,37.639C15.168,37.639,14.115,36.586,14.115,35.287L14.115,18.82C14.115,17.52,15.168,16.467,16.467,16.467L21.172,16.467L21.172,7.578C20.164,7.61,19.099,7.627,17.988,7.627ZM17.988,7.627"/>
</g>
  <g id="Medium-S" transform="matrix(1.0,0.0,0.0,1.0,1723.557363814233,636.4873833454831)">  <path clip-rule="evenodd" stroke-linejoin="miter" stroke-width="1px" stroke="none" stroke-opacity="1" fill="#000000" stroke-miterlimit="4" stroke-linecap="butt" stroke-dasharray="none" fill-rule="evenodd" d="M20.193,48.565C29.911,48.565,35.976,43.465,35.976,35.287L35.976,34.873L37.354,34.873C41.444,34.873,44.063,32.116,44.063,28.004L44.063,18.815C44.063,14.68,41.444,11.946,37.354,11.946L35.976,11.946L35.976,6.364C35.976,2.251,28.303,0,17.988,0C7.673,0,0,2.251,0,6.364L0,35.287C0,43.465,6.088,48.565,15.783,48.565L20.193,48.565ZM37.354,31.404L35.976,31.404L35.976,15.415L37.354,15.415C39.675,15.415,40.594,16.357,40.594,18.815L40.594,28.004C40.594,30.44,39.675,31.404,37.354,31.404ZM17.988,7.627C9.947,7.627,4.388,6.754,4.388,5.445C4.388,4.135,9.947,3.239,17.988,3.239C26.029,3.239,31.588,4.135,31.588,5.445C31.588,6.425,28.469,7.161,23.525,7.469L23.525,16.467L28.229,16.467C29.529,16.467,30.582,17.52,30.582,18.82L30.582,35.287C30.582,36.586,29.529,37.639,28.229,37.639L16.467,37.639C15.168,37.639,14.115,36.586,14.115,35.287L14.115,18.82C14.115,17.52,15.168,16.467,16.467,16.467L21.172,16.467L21.172,7.578C20.164,7.61,19.099,7.627,17.988,7.627ZM17.988,7.627"/>
</g>
  <g id="Regular-S" transform="matrix(1.0,0.0,0.0,1.0,1426.847363814233,636.4873833454831)">  <path fill="#000000" stroke-miterlimit="4" fill-rule="evenodd" stroke="none" clip-rule="evenodd" stroke-linecap="butt" stroke-opacity="1" stroke-width="1px" stroke-linejoin="miter" stroke-dasharray="none" d="M20.193,48.565C29.911,48.565,35.976,43.465,35.976,35.287L35.976,34.873L37.354,34.873C41.444,34.873,44.063,32.116,44.063,28.004L44.063,18.815C44.063,14.68,41.444,11.946,37.354,11.946L35.976,11.946L35.976,6.364C35.976,2.251,28.303,0,17.988,0C7.673,0,0,2.251,0,6.364L0,35.287C0,43.465,6.088,48.565,15.783,48.565L20.193,48.565ZM37.354,31.404L35.976,31.404L35.976,15.415L37.354,15.415C39.675,15.415,40.594,16.357,40.594,18.815L40.594,28.004C40.594,30.44,39.675,31.404,37.354,31.404ZM17.988,7.627C9.947,7.627,4.388,6.754,4.388,5.445C4.388,4.135,9.947,3.239,17.988,3.239C26.029,3.239,31.588,4.135,31.588,5.445C31.588,6.425,28.469,7.161,23.525,7.469L23.525,16.467L28.229,16.467C29.529,16.467,30.582,17.52,30.582,18.82L30.582,35.287C30.582,36.586,29.529,37.639,28.229,37.639L16.467,37.639C15.168,37.639,14.115,36.586,14.115,35.287L14.115,18.82C14.115,17.52,15.168,16.467,16.467,16.467L21.172,16.467L21.172,7.578C20.164,7.61,19.099,7.627,17.988,7.627ZM17.988,7.627"/>
</g>
  <g id="Light-S" transform="matrix(1.0,0.0,0.0,1.0,1130.1373638142331,636.4873833454831)">  <path stroke-linecap="butt" fill="#000000" fill-rule="evenodd" clip-rule="evenodd" stroke-opacity="1" stroke-linejoin="miter" stroke-miterlimit="4" stroke-dasharray="none" stroke-width="1px" stroke="none" d="M20.193,48.565C29.911,48.565,35.976,43.465,35.976,35.287L35.976,34.873L37.354,34.873C41.444,34.873,44.063,32.116,44.063,28.004L44.063,18.815C44.063,14.68,41.444,11.946,37.354,11.946L35.976,11.946L35.976,6.364C35.976,2.251,28.303,0,17.988,0C7.673,0,0,2.251,0,6.364L0,35.287C0,43.465,6.088,48.565,15.783,48.565L20.193,48.565ZM37.354,31.404L35.976,31.404L35.976,15.415L37.354,15.415C39.675,15.415,40.594,16.357,40.594,18.815L40.594,28.004C40.594,30.44,39.675,31.404,37.354,31.404ZM17.988,7.627C9.947,7.627,4.388,6.754,4.388,5.445C4.388,4.135,9.947,3.239,17.988,3.239C26.029,3.239,31.588,4.135,31.588,5.445C31.588,6.425,28.469,7.161,23.525,7.469L23.525,16.467L28.229,16.467C29.529,16.467,30.582,17.52,30.582,18.82L30.582,35.287C30.582,36.586,29.529,37.639,28.229,37.639L16.467,37.639C15.168,37.639,14.115,36.586,14.115,35.287L14.115,18.82C14.115,17.52,15.168,16.467,16.467,16.467L21.172,16.467L21.172,7.578C20.164,7.61,19.099,7.627,17.988,7.627ZM17.988,7.627"/>
</g>
  <g id="Thin-S" transform="matrix(1.0,0.0,0.0,1.0,833.4273638142331,636.4873833454831)">  <path fill-rule="evenodd" stroke="none" stroke-linecap="butt" stroke-dasharray="none" stroke-linejoin="miter" stroke-width="1px" fill="#000000" stroke-miterlimit="4" clip-rule="evenodd" stroke-opacity="1" d="M20.193,48.565C29.911,48.565,35.976,43.465,35.976,35.287L35.976,34.873L37.354,34.873C41.444,34.873,44.063,32.116,44.063,28.004L44.063,18.815C44.063,14.68,41.444,11.946,37.354,11.946L35.976,11.946L35.976,6.364C35.976,2.251,28.303,0,17.988,0C7.673,0,0,2.251,0,6.364L0,35.287C0,43.465,6.088,48.565,15.783,48.565L20.193,48.565ZM37.354,31.404L35.976,31.404L35.976,15.415L37.354,15.415C39.675,15.415,40.594,16.357,40.594,18.815L40.594,28.004C40.594,30.44,39.675,31.404,37.354,31.404ZM17.988,7.627C9.947,7.627,4.388,6.754,4.388,5.445C4.388,4.135,9.947,3.239,17.988,3.239C26.029,3.239,31.588,4.135,31.588,5.445C31.588,6.425,28.469,7.161,23.525,7.469L23.525,16.467L28.229,16.467C29.529,16.467,30.582,17.52,30.582,18.82L30.582,35.287C30.582,36.586,29.529,37.639,28.229,37.639L16.467,37.639C15.168,37.639,14.115,36.586,14.115,35.287L14.115,18.82C14.115,17.52,15.168,16.467,16.467,16.467L21.172,16.467L21.172,7.578C20.164,7.61,19.099,7.627,17.988,7.627ZM17.988,7.627"/>
</g>
  <g id="Ultralight-S" transform="matrix(1.0,0.0,0.0,1.0,536.7173638142331,636.4873833454831)">  <path stroke-opacity="1" clip-rule="evenodd" stroke-miterlimit="4" stroke-width="1px" stroke-linecap="butt" fill-rule="evenodd" stroke="none" stroke-linejoin="miter" stroke-dasharray="none" fill="#000000" d="M20.193,48.565C29.911,48.565,35.976,43.465,35.976,35.287L35.976,34.873L37.354,34.873C41.444,34.873,44.063,32.116,44.063,28.004L44.063,18.815C44.063,14.68,41.444,11.946,37.354,11.946L35.976,11.946L35.976,6.364C35.976,2.251,28.303,0,17.988,0C7.673,0,0,2.251,0,6.364L0,35.287C0,43.465,6.088,48.565,15.783,48.565L20.193,48.565ZM37.354,31.404L35.976,31.404L35.976,15.415L37.354,15.415C39.675,15.415,40.594,16.357,40.594,18.815L40.594,28.004C40.594,30.44,39.675,31.404,37.354,31.404ZM17.988,7.627C9.947,7.627,4.388,6.754,4.388,5.445C4.388,4.135,9.947,3.239,17.988,3.239C26.029,3.239,31.588,4.135,31.588,5.445C31.588,6.425,28.469,7.161,23.525,7.469L23.525,16.467L28.229,16.467C29.529,16.467,30.582,17.52,30.582,18.82L30.582,35.287C30.582,36.586,29.529,37.639,28.229,37.639L16.467,37.639C15.168,37.639,14.115,36.586,14.115,35.287L14.115,18.82C14.115,17.52,15.168,16.467,16.467,16.467L21.172,16.467L21.172,7.578C20.164,7.61,19.099,7.627,17.988,7.627ZM17.988,7.627"/>
</g>
 </g>
</svg>
